<mxfile host="Electron" modified="2024-03-29T08:10:39.814Z" agent="Mozilla/5.0 (Windows NT 10.0; Win64; x64) AppleWebKit/537.36 (KHTML, like Gecko) draw.io/24.1.0 Chrome/120.0.6099.109 Electron/28.1.0 Safari/537.36" etag="Qnd8yOwc9tsSBQTq42m6" version="24.1.0" type="device">
  <diagram name="Page-1" id="lw-tsYWXk4Y7dyKZj25H">
    <mxGraphModel dx="1434" dy="844" grid="1" gridSize="10" guides="1" tooltips="1" connect="1" arrows="1" fold="1" page="1" pageScale="1" pageWidth="1100" pageHeight="850" math="0" shadow="0">
      <root>
        <mxCell id="0" />
        <mxCell id="1" parent="0" />
        <mxCell id="QWbdxL-zyG75ebXD1PvB-18" style="edgeStyle=orthogonalEdgeStyle;rounded=0;orthogonalLoop=1;jettySize=auto;html=1;exitX=1;exitY=0.5;exitDx=0;exitDy=0;" edge="1" parent="1" source="QWbdxL-zyG75ebXD1PvB-4" target="QWbdxL-zyG75ebXD1PvB-12">
          <mxGeometry relative="1" as="geometry" />
        </mxCell>
        <mxCell id="QWbdxL-zyG75ebXD1PvB-4" value="" style="rounded=1;whiteSpace=wrap;html=1;" vertex="1" parent="1">
          <mxGeometry x="310" y="108.75" width="190" height="50" as="geometry" />
        </mxCell>
        <mxCell id="QWbdxL-zyG75ebXD1PvB-15" style="edgeStyle=orthogonalEdgeStyle;rounded=0;orthogonalLoop=1;jettySize=auto;html=1;exitX=1;exitY=0.5;exitDx=0;exitDy=0;" edge="1" parent="1" source="QWbdxL-zyG75ebXD1PvB-2">
          <mxGeometry relative="1" as="geometry">
            <mxPoint x="310" y="133.60000000000002" as="targetPoint" />
          </mxGeometry>
        </mxCell>
        <mxCell id="QWbdxL-zyG75ebXD1PvB-21" style="edgeStyle=orthogonalEdgeStyle;rounded=0;orthogonalLoop=1;jettySize=auto;html=1;exitX=0.5;exitY=1;exitDx=0;exitDy=0;entryX=0;entryY=0.5;entryDx=0;entryDy=0;" edge="1" parent="1" source="QWbdxL-zyG75ebXD1PvB-2" target="QWbdxL-zyG75ebXD1PvB-9">
          <mxGeometry relative="1" as="geometry" />
        </mxCell>
        <mxCell id="QWbdxL-zyG75ebXD1PvB-2" value="ทบทวนงานที่จะทำ" style="rounded=1;whiteSpace=wrap;html=1;" vertex="1" parent="1">
          <mxGeometry x="70" y="108.75" width="130" height="50" as="geometry" />
        </mxCell>
        <mxCell id="QWbdxL-zyG75ebXD1PvB-3" value="เลือกรายการ" style="text;whiteSpace=wrap;" vertex="1" parent="1">
          <mxGeometry x="320" y="118.75" width="100" height="40" as="geometry" />
        </mxCell>
        <mxCell id="QWbdxL-zyG75ebXD1PvB-23" style="edgeStyle=orthogonalEdgeStyle;rounded=0;orthogonalLoop=1;jettySize=auto;html=1;exitX=0.5;exitY=1;exitDx=0;exitDy=0;entryX=0;entryY=0.5;entryDx=0;entryDy=0;" edge="1" parent="1" source="QWbdxL-zyG75ebXD1PvB-5" target="QWbdxL-zyG75ebXD1PvB-10">
          <mxGeometry relative="1" as="geometry" />
        </mxCell>
        <mxCell id="QWbdxL-zyG75ebXD1PvB-5" value="วางแผนสปรินท์" style="text;whiteSpace=wrap;" vertex="1" parent="1">
          <mxGeometry x="410" y="118.75" width="80" height="40" as="geometry" />
        </mxCell>
        <mxCell id="QWbdxL-zyG75ebXD1PvB-20" style="edgeStyle=orthogonalEdgeStyle;rounded=0;orthogonalLoop=1;jettySize=auto;html=1;exitX=0.5;exitY=0;exitDx=0;exitDy=0;entryX=0.5;entryY=0;entryDx=0;entryDy=0;" edge="1" parent="1" source="QWbdxL-zyG75ebXD1PvB-7" target="QWbdxL-zyG75ebXD1PvB-2">
          <mxGeometry relative="1" as="geometry">
            <Array as="points">
              <mxPoint x="875" y="50" />
              <mxPoint x="135" y="50" />
            </Array>
          </mxGeometry>
        </mxCell>
        <mxCell id="QWbdxL-zyG75ebXD1PvB-7" value="ทบทวนสปรินท์" style="rounded=1;whiteSpace=wrap;html=1;" vertex="1" parent="1">
          <mxGeometry x="810" y="110" width="130" height="48.75" as="geometry" />
        </mxCell>
        <mxCell id="QWbdxL-zyG75ebXD1PvB-9" value="งานที่ค้าง &lt;br&gt;(Product backlog)" style="rounded=0;whiteSpace=wrap;html=1;" vertex="1" parent="1">
          <mxGeometry x="190" y="230" width="120" height="60" as="geometry" />
        </mxCell>
        <mxCell id="QWbdxL-zyG75ebXD1PvB-24" style="edgeStyle=orthogonalEdgeStyle;rounded=0;orthogonalLoop=1;jettySize=auto;html=1;exitX=1;exitY=0.5;exitDx=0;exitDy=0;entryX=0.5;entryY=1;entryDx=0;entryDy=0;startArrow=block;startFill=1;" edge="1" parent="1" source="QWbdxL-zyG75ebXD1PvB-10" target="QWbdxL-zyG75ebXD1PvB-12">
          <mxGeometry relative="1" as="geometry" />
        </mxCell>
        <mxCell id="QWbdxL-zyG75ebXD1PvB-10" value="สปรินท์ที่ค้าง &lt;br&gt;(Sprint backlog)" style="rounded=0;whiteSpace=wrap;html=1;" vertex="1" parent="1">
          <mxGeometry x="470" y="230" width="120" height="60" as="geometry" />
        </mxCell>
        <mxCell id="QWbdxL-zyG75ebXD1PvB-11" value="ซอฟต์แวร์ที่อาจจัดส่งได้" style="rounded=0;whiteSpace=wrap;html=1;" vertex="1" parent="1">
          <mxGeometry x="730" y="220" width="130" height="70" as="geometry" />
        </mxCell>
        <mxCell id="QWbdxL-zyG75ebXD1PvB-19" style="edgeStyle=orthogonalEdgeStyle;rounded=0;orthogonalLoop=1;jettySize=auto;html=1;exitX=1;exitY=0.5;exitDx=0;exitDy=0;entryX=0;entryY=0.5;entryDx=0;entryDy=0;" edge="1" parent="1" source="QWbdxL-zyG75ebXD1PvB-12" target="QWbdxL-zyG75ebXD1PvB-7">
          <mxGeometry relative="1" as="geometry" />
        </mxCell>
        <mxCell id="QWbdxL-zyG75ebXD1PvB-25" style="edgeStyle=orthogonalEdgeStyle;rounded=0;orthogonalLoop=1;jettySize=auto;html=1;exitX=0.7;exitY=0.981;exitDx=0;exitDy=0;exitPerimeter=0;" edge="1" parent="1" source="QWbdxL-zyG75ebXD1PvB-12" target="QWbdxL-zyG75ebXD1PvB-11">
          <mxGeometry relative="1" as="geometry">
            <Array as="points">
              <mxPoint x="683" y="162" />
              <mxPoint x="683" y="200" />
              <mxPoint x="790" y="200" />
            </Array>
          </mxGeometry>
        </mxCell>
        <mxCell id="QWbdxL-zyG75ebXD1PvB-12" value="สปรินท์" style="ellipse;whiteSpace=wrap;html=1;" vertex="1" parent="1">
          <mxGeometry x="580" y="104.38" width="120" height="58.75" as="geometry" />
        </mxCell>
        <mxCell id="QWbdxL-zyG75ebXD1PvB-13" value="&lt;span style=&quot;color: rgb(36, 36, 36); font-family: source-serif-pro, Georgia, Cambria, &amp;quot;Times New Roman&amp;quot;, Times, serif; letter-spacing: -0.054px; text-align: start; background-color: rgb(255, 255, 255);&quot;&gt;&lt;font style=&quot;font-size: 14px;&quot;&gt;Scrum (สกรัม)&lt;/font&gt;&lt;/span&gt;" style="ellipse;whiteSpace=wrap;html=1;" vertex="1" parent="1">
          <mxGeometry x="660" y="63.13" width="100" height="41.25" as="geometry" />
        </mxCell>
        <mxCell id="QWbdxL-zyG75ebXD1PvB-16" value="" style="endArrow=none;html=1;rounded=0;exitX=0.8;exitY=0.951;exitDx=0;exitDy=0;exitPerimeter=0;" edge="1" parent="1" source="QWbdxL-zyG75ebXD1PvB-3">
          <mxGeometry width="50" height="50" relative="1" as="geometry">
            <mxPoint x="400" y="150" as="sourcePoint" />
            <mxPoint x="400" y="110" as="targetPoint" />
          </mxGeometry>
        </mxCell>
        <mxCell id="QWbdxL-zyG75ebXD1PvB-22" style="edgeStyle=orthogonalEdgeStyle;rounded=0;orthogonalLoop=1;jettySize=auto;html=1;exitX=1;exitY=0.5;exitDx=0;exitDy=0;entryX=0.34;entryY=1.031;entryDx=0;entryDy=0;entryPerimeter=0;" edge="1" parent="1" source="QWbdxL-zyG75ebXD1PvB-9" target="QWbdxL-zyG75ebXD1PvB-3">
          <mxGeometry relative="1" as="geometry" />
        </mxCell>
      </root>
    </mxGraphModel>
  </diagram>
</mxfile>
